<svg id="Layer_1" data-name="Layer 1" xmlns="http://www.w3.org/2000/svg" viewBox="0 0 499.89 93.8"><defs><style>.cls-1{fill:#2a9d8f;}.cls-2{fill:#fff;}</style></defs><polygon class="cls-1" points="43.04 20.69 43.04 20.69 43.04 20.69 43.04 20.69"/><path class="cls-1" d="M205.93,185.07a51.67,51.67,0,0,0-9.76-1A51,51,0,0,0,178,187.44h0l-.12,0c-.8.3-1.58.63-2.36,1l-.22.1h0c-.79.35-1.57.73-2.34,1.13h0l-.21.11c-.75.39-1.49.8-2.24,1.22a3,3,0,0,1-.33.21c-.66.39-1.3.79-1.93,1.21l-.32.19a51.55,51.55,0,0,0-7.83,6.43h0l-.06.07.27-.67h0l.05-.11c.43-1,.9-1.92,1.41-2.86a47.36,47.36,0,0,1,11.88-14.42h0c.26-.22.55-.43.84-.66l.6-.47.52-.38c.33-.23.65-.47,1-.68.48-.34,1-.66,1.46-1h0l.06,0c.52-.33,1-.65,1.56-.95h0a46.83,46.83,0,0,1,18.45-6.08A46.55,46.55,0,0,1,205.93,185.07Z" transform="translate(-131.81 -170.8)"/><path class="cls-1" d="M212.2,238.47c.06-1.1.1-2.2.1-3.3A51,51,0,0,0,209,217v0l0-.09c-.29-.72-.57-1.44-.88-2.13-.15-.36-.32-.7-.46-1s-.26-.59-.42-.92v0l-.11-.21c-.06-.13-.13-.26-.2-.38l0-.09v0a0,0,0,0,1,0,0l0,0,0,0,0,0,0,0c-.08-.17-.17-.34-.26-.51h0v0h0c-.13-.26-.26-.51-.41-.77h0v0l0-.06-.08-.13h0l-.54-1h0v-.06c-.23-.39-.48-.81-.75-1.23v0l-.76-1.18,0,0,0,0-.42-.62-.08-.13v0l0,0h0l0-.05,0,0v0l-.14-.18v0c-.2-.29-.41-.58-.64-.88h0l0-.05h0c-.19-.26-.39-.51-.6-.78l-.3-.38c-.19-.26-.38-.5-.59-.75h0l-.1-.11c-.22-.28-.47-.58-.73-.88h0c-.83-1-1.7-1.89-2.62-2.81a.1.1,0,0,1,0,0l.75.32a47.29,47.29,0,0,1,21.47,19.34l0,0a46.78,46.78,0,0,1,6.07,18.42,46.73,46.73,0,0,1-14.24,7.79c0-.17,0-.33.07-.47.07-.35.13-.7.2-1.07v-.07c.17-1.06.31-2.13.41-3.21,0-.31.05-.6.07-.88S212.18,238.74,212.2,238.47Z" transform="translate(-131.81 -170.8)"/><path class="cls-1" d="M197.41,236.27c0,.1-.09.21-.13.3s-.14.35-.2.48a47.35,47.35,0,0,1-19.34,21.47,46.72,46.72,0,0,1-18.45,6.08,46.86,46.86,0,0,1-7.8-14.26,51.1,51.1,0,0,0,27.9-2.36c.75-.3,1.5-.61,2.23-.93l.16-.06h0l1.14-.52,0,0h0l0,0,.78-.36h0l0,0h0l.07,0,.13-.06h0l.1-.05.49-.26.08,0,0,0h0l0,0,.07,0h0l.52-.28a2,2,0,0,0,.31-.17h0l.07,0h0l.87-.49.13-.08h0a2.58,2.58,0,0,0,.31-.19c.23-.12.45-.25.65-.37h0l.16-.09v0h0l.38-.23,1-.64,0,0,0,0h0c.31-.21.63-.42.95-.67h.05c.28-.18.54-.37.78-.56h0l0,0c.45-.33.89-.66,1.32-1l.08-.06,0,0,.69-.55,0,0h0l.09-.07h0l0,0,0,0c.3-.24.58-.48.85-.71h0q1.46-1.23,2.82-2.61Z" transform="translate(-131.81 -170.8)"/><polygon class="cls-1" points="18.66 79.34 18.66 79.34 18.66 79.34 18.66 79.34"/><path class="cls-1" d="M160.13,236.39l-.57-.23h0l-.18-.08a47.32,47.32,0,0,1-19.05-15.61c-.86-1.21-1.68-2.44-2.43-3.72l0-.05a46.67,46.67,0,0,1-6.05-18.4,46.43,46.43,0,0,1,14.26-7.8,50.82,50.82,0,0,0,2.36,27.9,49.67,49.67,0,0,0,5.21,10.11h0a52.66,52.66,0,0,0,6.42,7.84Z" transform="translate(-131.81 -170.8)"/><path class="cls-1" d="M174.88,175.37a51.05,51.05,0,0,0-18,21.42,50.27,50.27,0,0,0-3.48,10.84,51.38,51.38,0,0,0-1,10v.17c-.1-.26-.23-.52-.32-.77a47.49,47.49,0,0,1-1.51-28.87,46.8,46.8,0,0,1,8.76-17.36A47.06,47.06,0,0,1,174.88,175.37Z" transform="translate(-131.81 -170.8)"/><path class="cls-1" d="M225.62,198.29a47.2,47.2,0,0,1-4.57,15.59,51.26,51.26,0,0,0-21.42-18,47.89,47.89,0,0,0-5-1.94h0c-.26-.1-.52-.17-.77-.25h0c-.27-.08-.55-.17-.83-.24h0l-.07,0-1.28-.36-1.36-.33h0l-.05,0-1.37-.3h-.1c-.2,0-.45-.08-.74-.14l-.14,0h-.18l-.2,0h0c-.34-.07-.7-.12-1.08-.17h-.06c-.32-.06-.65-.1-1-.14l-.51-.06c-.3-.05-.61-.07-.94-.1h-.16c-.35,0-.72-.08-1.13-.09h0q-1.91-.15-3.84-.15h-.08l.75-.32a47.4,47.4,0,0,1,28.88-1.5A47,47,0,0,1,225.62,198.29Z" transform="translate(-131.81 -170.8)"/><path class="cls-1" d="M208.45,235.19a47,47,0,0,1-10.32,29.41A47,47,0,0,1,182.55,260a51.31,51.31,0,0,0,18-21.42h0c.36-.79.69-1.59,1-2.4v0c.16-.4.3-.8.44-1.17h0v0h0l0-.06c.09-.28.19-.54.27-.81h0v0l0-.1c.08-.25.16-.49.22-.7l.05-.14h0v0c.11-.34.23-.7.33-1.09h0v0c.13-.42.24-.82.34-1.23a2.23,2.23,0,0,0,.09-.36c.07-.25.14-.5.19-.73h0l0-.16h0a4.17,4.17,0,0,0,.09-.43c.09-.38.17-.76.26-1.15v-.11c.06-.37.15-.77.21-1.18h0c.07-.34.12-.68.16-1h0c.1-.55.16-1.09.23-1.64l0-.11v0c0-.29.06-.57.1-.87v-.2c0-.39.07-.77.09-1.13.1-1.27.15-2.55.15-3.85v-.1c.1.27.21.52.32.78A47.56,47.56,0,0,1,208.45,235.19Z" transform="translate(-131.81 -170.8)"/><path class="cls-1" d="M178.8,244.06l-.77.32a47.49,47.49,0,0,1-28.87,1.51,47,47,0,0,1-17.35-8.76,46.41,46.41,0,0,1,4.57-15.6,51.06,51.06,0,0,0,21.41,18.06,49.53,49.53,0,0,0,10.84,3.47,50.75,50.75,0,0,0,10.08,1Z" transform="translate(-131.81 -170.8)"/><path class="cls-2" d="M246.63,185.74h29.79q8,0,12,2a17.61,17.61,0,0,1,6.65,5.61,14.84,14.84,0,0,1,2.62,8.89q0,10.62-11.52,14.18,6.66,1.5,10,6a15.91,15.91,0,0,1,3.32,9.7,16.65,16.65,0,0,1-5.43,12.4q-5.43,5.22-17.65,5.22H246.63ZM261.57,197v14H272.9q6.23,0,7.85-2.46a8.68,8.68,0,0,0,1.61-4.71,6.72,6.72,0,0,0-1.33-4.19,5.73,5.73,0,0,0-2.93-2.2,28.68,28.68,0,0,0-6.27-.44Zm0,25.38v15.4h11.5c3.92,0,6.69-.68,8.31-2.06a7.65,7.65,0,0,0,.1-11.09q-2.34-2.25-7.76-2.25Z" transform="translate(-131.81 -170.8)"/><path class="cls-2" d="M333.1,250.65q-12.92,0-20-9.7t-7.06-23.46q0-14,7.16-23.37t20.4-9.36q13.38,0,20.18,10a39.65,39.65,0,0,1,6.81,22.87q0,13.91-7,23.46T333.1,250.65Zm.42-53.67q-11.77,0-11.77,20.7t11.77,20.74q11.42,0,11.41-20.7T333.52,197Z" transform="translate(-131.81 -170.8)"/><path class="cls-2" d="M394.4,250.65q-12.91,0-20-9.7t-7.06-23.46q0-14,7.15-23.37t20.41-9.36q13.38,0,20.18,10a39.65,39.65,0,0,1,6.81,22.87q0,13.91-7,23.46T394.4,250.65Zm.42-53.67Q383,197,383,217.68t11.78,20.74q11.4,0,11.4-20.7T394.82,197Z" transform="translate(-131.81 -170.8)"/><path class="cls-2" d="M446.4,185.74v30l20-30h14.34l-15.36,22.82,19.2,41.1H468.13L455.37,221.9l-9,13.11v14.65H431.7V185.74Z" transform="translate(-131.81 -170.8)"/><path class="cls-1" d="M507.09,185.74v63.92H492.15V185.74Z" transform="translate(-131.81 -170.8)"/><path class="cls-1" d="M569.09,185.74v63.92H556.32l-25-43.17c0,1.09.07,1.81.1,2.15a25.91,25.91,0,0,1,.18,2.76v38.26H519.92V185.74h16.14l21.75,37.7c-.19-1.87-.28-3.3-.28-4.26V185.74Z" transform="translate(-131.81 -170.8)"/><path class="cls-1" d="M631.7,215.48v34.18h-6.83a52,52,0,0,0-2.13-7.35,21.58,21.58,0,0,1-17.43,8.34q-12.51,0-19.47-9t-7-23.13q0-15.27,7.42-24.54t20.16-9.27q10.68,0,17.24,6t8,16l-14.23,1.87q-1.74-11.61-11-11.61a10,10,0,0,0-9.2,5.5q-3.12,5.51-3.11,15.71,0,9.84,3.37,15a10.8,10.8,0,0,0,9.6,5.19,11,11,0,0,0,7.19-2.62c2.1-1.75,3.16-4.54,3.16-8.38h-12V215.48Z" transform="translate(-131.81 -170.8)"/></svg>