<svg id="Layer_1" data-name="Layer 1" xmlns="http://www.w3.org/2000/svg" viewBox="0 0 499.11 85.67"><defs><style>.cls-1{fill:#2a9d8f;}.cls-2{fill:#264653;}</style></defs><polygon class="cls-1" points="39.31 18.9 39.31 18.9 39.31 18.9 39.31 18.9"/><path class="cls-1" d="M213.44,189A46.32,46.32,0,0,0,188,191.13h0l-.1,0q-1.09.42-2.16.9l-.2.08h0c-.72.33-1.44.67-2.14,1h0l-.19.1c-.69.35-1.37.73-2.05,1.12l-.3.19c-.6.35-1.18.72-1.76,1.1l-.29.18a47,47,0,0,0-7.15,5.86h0l-.06.07c.09-.2.16-.41.25-.61h0l0-.1c.4-.89.83-1.76,1.29-2.62a43.45,43.45,0,0,1,10.85-13.17h0l.77-.61.54-.43.48-.34.88-.63c.44-.31.89-.6,1.33-.88h0l.05,0c.48-.3.95-.59,1.43-.87h0A42.63,42.63,0,0,1,206.31,176,42.7,42.7,0,0,1,213.44,189Z" transform="translate(-145.73 -175.94)"/><path class="cls-1" d="M219.16,237.75c.06-1,.09-2,.09-3a46.51,46.51,0,0,0-3-16.57v0l0-.08c-.26-.66-.52-1.31-.8-2-.14-.32-.29-.63-.42-.93s-.24-.54-.39-.84v0l-.09-.19-.18-.35,0-.08h0a0,0,0,0,1,0,0l0,0,0,0v0l0,0-.24-.47h0v0h0c-.12-.23-.24-.47-.38-.7v0h0l0-.05-.08-.13h0c-.15-.29-.31-.58-.49-.88h0v0h0v0c-.22-.36-.44-.74-.69-1.13v0c-.22-.35-.45-.71-.69-1.07l0,0,0,0-.38-.57-.07-.11v0l0,0h0l0,0,0,0v0l-.12-.16v0l-.58-.81h0l0,0h0c-.17-.24-.35-.47-.54-.71l-.27-.35c-.17-.24-.36-.46-.54-.68h0l-.09-.11-.67-.8h0c-.76-.88-1.56-1.73-2.39-2.58,0,0,0,0,0,0l.68.29a43.22,43.22,0,0,1,19.62,17.66l0,0a42.85,42.85,0,0,1,5.54,16.83,42.38,42.38,0,0,1-13,7.11c0-.15,0-.3.07-.43l.18-1v-.06c.15-1,.28-1.95.38-2.93,0-.29,0-.55.06-.81S219.14,238,219.16,237.75Z" transform="translate(-145.73 -175.94)"/><path class="cls-1" d="M205.65,235.73l-.12.28-.18.44a43.07,43.07,0,0,1-34.51,25.16,42.85,42.85,0,0,1-7.14-13,47.71,47.71,0,0,0,8.91.87,46.82,46.82,0,0,0,16.58-3c.69-.27,1.37-.55,2-.85l.15-.06h0c.36-.17.72-.32,1-.48l0,0h0l0,0,.7-.33h0l0,0h0l.06,0,.12-.06h0l.1-.05c.16-.07.31-.16.45-.23l.06,0,0,0h0l.05,0,.06,0h0c.18-.08.33-.17.48-.25l.29-.16h0l.06,0h0l.8-.46.12-.07h0l.29-.18.59-.34h0l.14-.08h0l.35-.22.9-.58,0,0,0,0h0c.27-.19.56-.38.86-.61h0c.25-.17.49-.35.71-.52h0l0,0c.41-.3.8-.6,1.2-.91l.08-.06,0,0,.63-.5,0,0h0l.08-.07h0v0c.28-.22.54-.44.78-.65h0c.88-.76,1.75-1.55,2.58-2.4Z" transform="translate(-145.73 -175.94)"/><polygon class="cls-1" points="17.05 72.47 17.05 72.47 17.04 72.47 17.05 72.47"/><path class="cls-1" d="M171.6,235.85l-.52-.22h0l-.17-.07a43.21,43.21,0,0,1-17.4-14.26c-.78-1.1-1.53-2.23-2.21-3.4l0,0A42.74,42.74,0,0,1,145.74,201a42.62,42.62,0,0,1,13-7.12,46,46,0,0,0-.88,8.91,46.61,46.61,0,0,0,3,16.58,45.59,45.59,0,0,0,4.75,9.23h0a47.54,47.54,0,0,0,5.87,7.15Z" transform="translate(-145.73 -175.94)"/><path class="cls-1" d="M185.07,180.11a46.78,46.78,0,0,0-16.49,19.56,46.13,46.13,0,0,0-3.17,9.9,46.6,46.6,0,0,0-.91,9.14v.15c-.09-.24-.2-.47-.29-.7a43.35,43.35,0,0,1-1.37-26.37,42.44,42.44,0,0,1,8-15.85A42.77,42.77,0,0,1,185.07,180.11Z" transform="translate(-145.73 -175.94)"/><path class="cls-1" d="M231.41,201a42.65,42.65,0,0,1-4.17,14.25,46.63,46.63,0,0,0-19.56-16.49,44.15,44.15,0,0,0-4.57-1.78h0l-.7-.22h0l-.76-.22h0l-.07,0-1.17-.33-1.24-.3h-.05l-1.26-.28h-.09c-.18,0-.4-.07-.67-.13l-.13,0h-.16l-.18,0h0l-1-.16h-.06a8.89,8.89,0,0,0-.88-.13l-.47-.06c-.27,0-.56-.06-.85-.09h-.15c-.32,0-.66-.07-1-.08h0c-1.16-.09-2.33-.13-3.51-.13h-.07l.68-.29A43.3,43.3,0,0,1,215.56,193,42.81,42.81,0,0,1,231.41,201Z" transform="translate(-145.73 -175.94)"/><path class="cls-1" d="M215.73,234.75a42.95,42.95,0,0,1-9.42,26.86,43,43,0,0,1-14.23-4.16,47,47,0,0,0,16.48-19.57h0c.32-.72.63-1.45.92-2.19v0l.4-1.07h0v0h0l0-.06c.08-.25.17-.49.24-.74h0v-.06l0-.08.2-.65,0-.13h0v0c.11-.31.21-.64.31-1v0c.12-.38.22-.75.31-1.12a1.91,1.91,0,0,0,.09-.33c.06-.23.12-.46.17-.67h0l0-.14h0c0-.08.06-.22.09-.4.08-.34.16-.69.23-1.05v-.1c.06-.34.14-.7.2-1.07h0c.06-.31.1-.62.14-.91h0c.09-.5.15-1,.21-1.49l0-.11v0c0-.27.06-.52.09-.8v-.18c0-.35.06-.71.09-1,.08-1.16.13-2.33.13-3.52v-.09c.09.24.19.48.29.72A43.46,43.46,0,0,1,215.73,234.75Z" transform="translate(-145.73 -175.94)"/><path class="cls-1" d="M188.65,242.85l-.7.29A43.29,43.29,0,0,1,172.61,246a43.81,43.81,0,0,1-11-1.43,43,43,0,0,1-15.85-8,42.59,42.59,0,0,1,4.18-14.25,46.62,46.62,0,0,0,19.55,16.49,45.43,45.43,0,0,0,9.9,3.18,46.63,46.63,0,0,0,9.21.92Z" transform="translate(-145.73 -175.94)"/><path class="cls-2" d="M249,247.67V189.88h21.46q7.74.08,12.45,3.45T287.59,205a16.47,16.47,0,0,1-1.42,7,10.18,10.18,0,0,1-4.94,4.83v.08c4.13.56,7.14,2.16,9,4.79a16.83,16.83,0,0,1,2.8,10q0,9-6.48,12.53a30,30,0,0,1-14.44,3.49Zm15-35.1h1.68a.26.26,0,0,0,.19.07h.27a14.54,14.54,0,0,0,5.25-1.07q2.42-1,2.41-4.52t-2.29-4.58a13.12,13.12,0,0,0-5-1.09H264Zm0,23.6h1.91a.27.27,0,0,0,.19.08h2.19c.66,0,1.32,0,2-.08a13.52,13.52,0,0,0,5.21-1.46q2.37-1.25,2.37-4.63c0-2.62-.86-4.32-2.6-5.09a14.76,14.76,0,0,0-5.67-1.23H264Z" transform="translate(-145.73 -175.94)"/><path class="cls-2" d="M329.89,188a33.6,33.6,0,0,1,22.22,8.39,26.86,26.86,0,0,1,9.73,21.42q0,14-9,22.91t-22.95,8.89q-13.87,0-22.91-8.89t-9.05-22.91a26.89,26.89,0,0,1,9.73-21.42A33.29,33.29,0,0,1,329.89,188Zm-11.54,19.27a14.39,14.39,0,0,0-4.78,10.61,17,17,0,0,0,4.78,12.34,16,16,0,0,0,23.07,0,17,17,0,0,0,4.79-12.37,14.43,14.43,0,0,0-4.79-10.63,16,16,0,0,0-11.53-4.65A16.28,16.28,0,0,0,318.35,207.24Z" transform="translate(-145.73 -175.94)"/><path class="cls-2" d="M397.86,188a33.56,33.56,0,0,1,22.22,8.39,26.87,26.87,0,0,1,9.74,21.42q0,14-9,22.91t-22.95,8.89q-13.87,0-22.91-8.89t-9.05-22.91a26.87,26.87,0,0,1,9.74-21.42A33.24,33.24,0,0,1,397.86,188Zm-11.53,19.27a14.36,14.36,0,0,0-4.79,10.61,16.91,16.91,0,0,0,4.79,12.34,16,16,0,0,0,23.06,0,17,17,0,0,0,4.79-12.37,14.39,14.39,0,0,0-4.79-10.63,15.94,15.94,0,0,0-11.53-4.65A16.24,16.24,0,0,0,386.33,207.24Z" transform="translate(-145.73 -175.94)"/><path class="cls-2" d="M470.13,189.88h18.62l-23,27.36,25.06,30.43H471.35L452,222.61h-.15v25.06h-15V189.88h15v23.84H452Z" transform="translate(-145.73 -175.94)"/><path class="cls-1" d="M509.9,247.67h-15V189.88h15Z" transform="translate(-145.73 -175.94)"/><path class="cls-1" d="M519.71,189.88h15l27.51,35.33h.15V189.88h15v57.79h-15l-27.51-35.41h-.15v35.41h-15Z" transform="translate(-145.73 -175.94)"/><path class="cls-1" d="M644.85,215.4a71.74,71.74,0,0,1-1.08,11.92,27.61,27.61,0,0,1-4.82,11,24.88,24.88,0,0,1-10.39,8.58,33.3,33.3,0,0,1-13.45,2.68q-13.64,0-22.22-8.39t-8.58-22q0-14.1,8.69-22.61T615.65,188a29.72,29.72,0,0,1,15.59,4,26.8,26.8,0,0,1,10.47,12.14l-14.26,5.9a14.87,14.87,0,0,0-4.75-6.59A12.19,12.19,0,0,0,615,201a12.52,12.52,0,0,0-10.77,5.21A21.22,21.22,0,0,0,600,217.62a3.59,3.59,0,0,0-.08.81v1.26A21.41,21.41,0,0,0,604,231.8a12.89,12.89,0,0,0,11.19,5.52,13.39,13.39,0,0,0,8.28-2.53,10.07,10.07,0,0,0,3.83-7.51H615V215.4Z" transform="translate(-145.73 -175.94)"/></svg>